<svg width="126" height="104" viewBox="0 0 126 104" fill="none" xmlns="http://www.w3.org/2000/svg">
<path fill-rule="evenodd" clip-rule="evenodd" d="M62.9976 5.55174C64.5515 5.55174 65.7692 4.33211 65.7692 2.77587C65.7692 1.21963 64.5515 0 62.9976 0C61.4437 0 60.2259 1.26353 60.2259 2.77587C60.2259 4.28821 61.4875 5.55174 62.9976 5.55174ZM62.9975 7.26901C61.6531 33.6861 27.8868 51.3073 9.11373 33.5154C9.11373 33.5154 14.2819 41.5893 22.8063 56.9468C35.0717 50.4682 48.8471 46.98 63.0024 46.98C77.1577 46.98 90.9721 50.4731 103.237 56.9468C111.723 41.5942 116.93 33.5154 116.93 33.5154C98.1569 51.3073 64.3906 33.6812 63.0024 7.26901H62.9975ZM0 79.1977C35.7439 46.6824 90.2999 46.6824 126 79.1977C110.252 60.8155 87.236 50.2145 63.0024 50.2145C38.7689 50.2145 15.792 60.8155 0 79.1977ZM44.4338 32.1299C39.7722 35.1155 34.3166 37.0962 28.8123 37.3889C32.2123 30.9932 31.7933 21.6557 30.3223 15.7674C32.675 21.363 37.926 29.0613 44.4338 32.1299ZM6.44951 32.6567C8.00338 32.6567 9.22115 31.3932 9.22115 29.8808C9.22115 28.3685 8.00338 27.105 6.44951 27.105C4.89564 27.105 3.72171 28.3685 3.72171 29.8808C3.72171 31.3932 4.93948 32.6567 6.44951 32.6567ZM31.4575 12.4744C31.4575 13.9867 30.1959 15.2503 28.6859 15.2503C27.132 15.2503 25.9142 13.9867 25.9142 12.4744C25.9142 10.9621 27.1758 9.69853 28.6859 9.69853C30.1959 9.69853 31.4575 10.9621 31.4575 12.4744ZM81.6099 32.1299C86.2715 35.1155 91.6882 37.0962 97.2315 37.3889C93.8314 30.9932 94.2504 21.6557 95.7214 15.7674C93.3687 21.363 88.1177 29.0613 81.6099 32.1299ZM119.809 32.6567C121.363 32.6567 122.581 31.3932 122.581 29.8808C122.581 28.3685 121.363 27.105 119.809 27.105C118.255 27.105 117.037 28.3685 117.037 29.8808C117.037 31.3932 118.299 32.6567 119.809 32.6567ZM100.13 11.7035C100.13 13.2158 98.868 14.4794 97.358 14.4794C95.8479 14.4794 94.5863 13.2158 94.5863 11.7035C94.5863 10.1912 95.8479 8.92762 97.358 8.92762C98.868 8.92762 100.13 10.1912 100.13 11.7035Z" fill="url(#paint0_linear_3091_26606)"/>
<path d="M49.8797 82.7832H61.1611V99.0969C56.4849 102.292 50.0453 104 44.3803 104C31.9444 104 22.8647 95.6771 22.8647 83.8321C22.8647 71.987 31.9444 63.6643 44.653 63.6643C52.247 63.6643 58.3554 66.3085 62.262 71.104L53.9519 78.4315C51.531 75.6215 48.7253 74.1872 45.3155 74.1872C39.592 74.1872 35.9631 77.8803 35.9631 83.8321C35.9631 89.7838 39.5969 93.4769 45.1499 93.4769C46.7476 93.4769 48.2869 93.2037 49.8797 92.5402V82.7881V82.7832Z" fill="#262B40"/>
<path d="M64.2978 100.029L68.4772 90.55C72.111 92.7014 76.9529 94.0772 81.1858 94.0772C84.8732 94.0772 86.1933 93.3063 86.1933 91.9843C86.1933 87.135 64.9019 91.0476 64.9019 76.6658C64.9019 69.5041 70.8981 63.6597 82.8371 63.6597C88.0102 63.6597 93.344 64.7622 97.3627 67.021L93.4561 76.4462C89.6615 74.5192 86.0813 73.5825 82.7251 73.5825C78.9305 73.5825 77.7176 74.6851 77.7176 76.0072C77.7176 80.6369 99.0091 76.778 99.0091 90.9939C99.0091 98.0483 93.0128 104 81.0738 104C74.6343 104 68.1411 102.4 64.293 100.034L64.2978 100.029Z" fill="#262B40"/>
<defs>
<linearGradient id="paint0_linear_3091_26606" x1="63" y1="-24.4581" x2="63" y2="66.3863" gradientUnits="userSpaceOnUse">
<stop stop-color="#FFD958"/>
<stop offset="1" stop-color="#FF964E"/>
</linearGradient>
</defs>
</svg>
