<svg xmlns="http://www.w3.org/2000/svg" viewBox="0 0 1753.168 687.802"><svg viewBox="0 0 932 567.5861" height="567.58611" width="932" x="0"><g transform="matrix(1 0 0 1 0 0)"><path id="a31475c4-f0df-4934-8dee-db246d5650fa-482" data-name="Path 438" d="M173.377,684.43344a24.21459,24.21459,0,0,0,23.38269-4.11877c8.18977-6.87441,10.758-18.196,12.8467-28.68191l6.17973-31.01657-12.9377,8.90837c-9.30465,6.40641-18.81826,13.01866-25.26011,22.29785s-9.25223,21.94707-4.07792,31.988" transform="translate(-134 -166.20694)" fill="#e6e6e6"/><path id="bc80039d-7499-47e3-8dd4-b917794dfbc0-483" data-name="Path 439" d="M175.37466,724.144c-1.62839-11.86368-3.30382-23.88078-2.15884-35.87167,1.01467-10.64932,4.26373-21.04881,10.87831-29.57938a49.2061,49.2061,0,0,1,12.62466-11.44039c1.26215-.79647,2.42409,1.20354,1.16733,1.997a46.77949,46.77949,0,0,0-18.50446,22.32562c-4.02857,10.24607-4.67545,21.41582-3.98154,32.3003.41944,6.58218,1.31074,13.1212,2.20588,19.65251a1.19817,1.19817,0,0,1-.808,1.42251,1.16348,1.16348,0,0,1-1.42253-.808Z" transform="translate(-134 -166.20694)" fill="#f2f2f2"/><path id="a24c42db-7472-45f4-900c-466dbf3f7d22-484" data-name="Path 442" d="M187.09569,705.10755a17.82511,17.82511,0,0,0,15.53141,8.01862c7.8644-.37318,14.41806-5.85973,20.31713-11.07027l17.452-15.4088-11.54987-.55281c-8.30619-.39784-16.82672-.771-24.73813,1.79339s-15.20758,8.72638-16.654,16.9154" transform="translate(-134 -166.20694)" fill="#e6e6e6"/><path id="a7d2fb0b-6149-49f2-88d6-cc03571334a8-485" data-name="Path 443" d="M170.77168,730.96369c7.83972-13.87142,16.93234-29.28794,33.1808-34.21552a37.02609,37.02609,0,0,1,13.95545-1.441c1.48189.128,1.11179,2.41174-.367,2.28454a34.39833,34.39833,0,0,0-22.27164,5.89215c-6.27994,4.27454-11.16975,10.21756-15.30781,16.51907-2.53511,3.86051-4.80576,7.88445-7.07642,11.903C172.1595,733.19039,170.03767,732.26285,170.77168,730.96369Z" transform="translate(-134 -166.20694)" fill="#f2f2f2"/><rect id="b85ae1dc-b170-4f54-a6de-4a72451950d7" data-name="Rectangle 62" x="175.25235" y="17.77538" width="648.36576" height="307.6608" fill="#e6e6e6"/><rect id="f015ec3e-20cc-40e8-8473-d753a9bdb685" data-name="Rectangle 75" x="193.79258" y="44.15783" width="611.2862" height="256.69103" fill="#fff"/><rect id="ed585d6d-4c60-4aae-9dcd-e3012a759289" data-name="Rectangle 80" x="174.97588" width="648.36576" height="27.5445" fill="#1c2144"/><circle id="b43fe0fb-7393-4bbe-8dcd-48ed75608891" data-name="Ellipse 90" cx="195.44487" cy="12.74061" r="5.10527" fill="#fff"/><circle id="ada3e127-c3a1-446f-8730-bf32ed0f9b11" data-name="Ellipse 91" cx="214.8228" cy="12.74061" r="5.10527" fill="#fff"/><circle id="e3927273-efa9-4ef7-88ca-a022a07a6d22" data-name="Ellipse 92" cx="234.20163" cy="12.74061" r="5.10527" fill="#fff"/><path d="M472.16718,406.99667H781.11811V354.04354a41.92864,41.92864,0,0,0-12.86035-29.86572l-.084-.082c-5.51806-5.53662-23.95922-19.58838-43.03955-18.397-10.0791.62744-18.70825,5.48486-25.64721,14.4375-21.59912,27.87744-49.97168,18.46728-64.96192,10.37695-13.21069-7.13135-26.70215-10.47851-40.10229-9.9458-18.76709.73389-45.18189,7.64746-64.44605,36.41748-7.35766,10.97949-23.35888,25.8833-57.80957,34.64209Z" transform="translate(-134 -166.20694)" fill="#e4e4e4" style="isolation:isolate"/><path d="M798.59839,408.22816H472.76177a1.01977,1.01977,0,0,1-1.01972-1.01972V251.03494a1.01972,1.01972,0,0,1,2.03944,0V406.18872h324.8169a1.01972,1.01972,0,0,1,0,2.03944Z" transform="translate(-134 -166.20694)" fill="#3f3d56"/><rect x="398.7414" y="181.96453" width="2" height="58.62158" fill="#3f3d56"/><rect x="458.61811" y="154.58611" width="2" height="86" fill="#3f3d56"/><rect x="518.61811" y="172.58611" width="2" height="68" fill="#3f3d56"/><rect x="578.61811" y="139.58611" width="2" height="101" fill="#3f3d56"/><rect x="638.61811" y="162.58611" width="2" height="78" fill="#3f3d56"/><circle cx="459.74144" cy="155.96462" r="6.11832" fill="#1c2144"/><circle cx="579.74144" cy="139.96462" r="6.11832" fill="#1c2144"/><circle cx="519.74144" cy="172.96462" r="6.11832" fill="#1c2144"/><circle cx="399.74144" cy="181.96462" r="6.11832" fill="#1c2144"/><circle cx="639.74144" cy="161.96462" r="6.11832" fill="#1c2144"/><polygon points="136.913 555.469 149.173 555.469 155.005 508.181 136.911 508.182 136.913 555.469" fill="#ffb6b6"/><path d="M267.78543,717.6737l24.144-.001h.001A15.38731,15.38731,0,0,1,307.31693,733.059v.5l-39.53076.00147Z" transform="translate(-134 -166.20694)" fill="#2f2e41"/><polygon points="194.913 555.469 207.173 555.469 213.005 508.181 194.911 508.182 194.913 555.469" fill="#ffb6b6"/><path d="M325.78543,717.6737l24.144-.001h.001A15.38731,15.38731,0,0,1,365.31693,733.059v.5l-39.53076.00147Z" transform="translate(-134 -166.20694)" fill="#2f2e41"/><path d="M351.79286,505.49135a10.7427,10.7427,0,0,0-2.51239-16.27991l-19.95137-95.789-21.73592,8.56372,26.4463,91.46467a10.80091,10.80091,0,0,0,17.75338,12.04055Z" transform="translate(-134 -166.20694)" fill="#ffb6b6"/><path d="M257.76441,487.045l-9.03648,9.17282s-9.68839,35.50336,8.85089,79.28929l12.4,126.94994,22.31,1.67994,6.66005-147.69558,30.72994,49.0256L324.31125,703.612l24.66119-.56693,11.14567-108.752L329.67881,480.8088Z" transform="translate(-134 -166.20694)" fill="#2f2e41"/><path d="M289.36079,499.40243A345.94729,345.94729,0,0,1,248.6623,496.714l-.54346-.07226,13.46656-59.18555-4.637-76.15088,43.7876-1.5a16.08951,16.08951,0,0,1,16.50513,13.76367l8.96191,60.75538,8.29,53.90234-.11108.16211C328.42451,497.12411,308.50605,499.40243,289.36079,499.40243Z" transform="translate(-134 -166.20694)" fill="#1c2144"/><path d="M296.752,372.40022l8.89685-11.15322s15.59694-10.666,20.53312,12.19,14.10739,59.96025,14.10739,59.96025l-30.498,2.46974Z" transform="translate(-134 -166.20694)" fill="#1c2144"/><path d="M212.44336,506.49135a10.7427,10.7427,0,0,1,2.51239-16.27991l19.95137-95.789,21.73592,8.56372-26.4463,91.46467a10.80091,10.80091,0,0,1-17.75338,12.04055Z" transform="translate(-134 -166.20694)" fill="#ffb6b6"/><path d="M267.48425,373.40022,258.5874,362.247s-15.59694-10.666-20.53312,12.19-14.10739,59.96025-14.10739,59.96025l30.498,2.46974Z" transform="translate(-134 -166.20694)" fill="#1c2144"/><path d="M304.9783,348.66834h-58a4.50508,4.50508,0,0,1-4.5-4.5v-25a33.5,33.5,0,1,1,67,0v25A4.50508,4.50508,0,0,1,304.9783,348.66834Z" transform="translate(-134 -166.20694)" fill="#2f2e41"/><circle cx="148.38189" cy="156.39447" r="24.56103" fill="#ffb6b6"/><path d="M317.40359,321.66834H281.938l-.36377-5.0918-1.81836,5.0918h-5.46094l-.7207-10.0918-3.604,10.0918H259.40359v-.5a26.52977,26.52977,0,0,1,26.49976-26.5h5.00024a26.53,26.53,0,0,1,26.5,26.5Z" transform="translate(-134 -166.20694)" fill="#2f2e41"/><path d="M281.64776,353.33509a4.5963,4.5963,0,0,1-.79639-.07031l-25.96948-4.582V305.76283h28.5874l-.70776.82519c-9.84717,11.48438-2.42847,30.10645,2.87012,40.18457a4.43343,4.43343,0,0,1-.3523,4.707A4.48192,4.48192,0,0,1,281.64776,353.33509Z" transform="translate(-134 -166.20694)" fill="#2f2e41"/><polygon points="864.323 555.469 852.064 555.469 846.231 508.181 864.326 508.182 864.323 555.469" fill="#9e616a"/><path d="M1001.45005,733.56042l-39.53076-.00147v-.5a15.38731,15.38731,0,0,1,15.38648-15.38623h.001l24.144.001Z" transform="translate(-134 -166.20694)" fill="#2f2e41"/><polygon points="820.323 555.469 808.064 555.469 802.231 508.181 820.326 508.182 820.323 555.469" fill="#9e616a"/><path d="M957.45005,733.56042l-39.53076-.00147v-.5a15.38731,15.38731,0,0,1,15.38648-15.38623h.001l24.144.001Z" transform="translate(-134 -166.20694)" fill="#2f2e41"/><path d="M811.5379,390.32037a11.39632,11.39632,0,0,0,17.434,1.19462l24.25852,9.4731,9.35227-13.33777-34.44561-12.8967a11.45809,11.45809,0,0,0-16.5992,15.56675Z" transform="translate(-134 -166.20694)" fill="#9e616a"/><polygon points="820.169 304.925 788.229 315.344 798.899 541.54 823.549 542.15 836.164 382.633 839.029 541.52 869.508 543.2 880.744 304.925 820.169 304.925" fill="#2f2e41"/><path d="M932.61811,337.79306l81.97476-17.81106,9.11584,70.585-7.5906,33.72606,3.04043,51.254s-64.81863,32.26134-96.92953,6.00367c0,0,25.809-67.78972,10.84908-99.52369Z" transform="translate(-134 -166.20694)" fill="#3f3d56"/><path d="M946.815,347.777l-14.19685-9.98394s-.83858-1.16142-12.66929,12.66929-35.83071,35.83071-35.83071,35.83071l-40-15-7.2874,26.92494,46.48819,21.664,65.816-43.95511Z" transform="translate(-134 -166.20694)" fill="#3f3d56"/><path d="M1019.17338,502.0057a11.39628,11.39628,0,0,0,4.42162-16.90625l13.82655-22.069-11.362-11.67333-19.088,31.44a11.45808,11.45808,0,0,0,12.20183,19.20864Z" transform="translate(-134 -166.20694)" fill="#9e616a"/><path d="M1001.80709,333.887l12.78578-13.905s14.24626-4.96114,25.88575,20.675,24.63949,77.6361,24.63949,77.6361l-30.39487,58.54724-23.60513-10.54724,23.60513-48.41339L1009.74409,382.027Z" transform="translate(-134 -166.20694)" fill="#3f3d56"/><circle cx="967.36312" cy="290.84412" r="26.60917" transform="translate(-154.96036 333.4395) rotate(-28.66316)" fill="#9e616a"/><path d="M992.38944,269.57145l1.29-2.59637-6.49095-3.225s-7.16055-11.651-20.11784-8.3768-18.787,5.23371-18.787,5.23371l-6.47453,3.25776,3.24953,3.23319-5.82954,1.95959,3.89455,1.935-4.53141,2.60456,2.43935,13.35188s4.0516-10.12689,11.84068-6.25692,22.0365-2.00053,22.0365-2.00053l12.37786,23.95508s2.55356-8.39745,7.1064-6.1583C994.39314,296.48832,1006.02446,277.96461,992.38944,269.57145Z" transform="translate(-134 -166.20694)" fill="#2f2e41"/><path d="M434,733.79306H135a1,1,0,0,1,0-2H434a1,1,0,0,1,0,2Z" transform="translate(-134 -166.20694)" fill="#cacaca"/><path d="M1065,733.79306H836a1,1,0,0,1,0-2h229a1,1,0,0,1,0,2Z" transform="translate(-134 -166.20694)" fill="#cacaca"/></g></svg><svg viewBox="0 0 821.168 687.802" height="687.80201" width="821.16801" x="932"><g transform="matrix(1 0 0 1 0 0)"><polygon points="755.994 674.556 743.734 674.555 737.902 627.268 755.996 627.268 755.994 674.556" fill="#9e616a"/><path d="M948.53667,792.539l-39.53076-.00146v-.5a15.3873,15.3873,0,0,1,15.38647-15.38623h.001l24.144.001Z" transform="translate(-189.41599 -106.099)" fill="#2f2e41"/><polygon points="708.994 674.556 696.734 674.555 690.902 627.268 708.996 627.268 708.994 674.556" fill="#9e616a"/><path d="M901.53667,792.539l-39.53076-.00146v-.5a15.3873,15.3873,0,0,1,15.38647-15.38623h.001l24.144.001Z" transform="translate(-189.41599 -106.099)" fill="#2f2e41"/><path id="ae5c11dc-7e77-468a-a39f-cc8da6ee1565-488" data-name="Path 1495" d="M368.748,790.71V410.9a8.82,8.82,0,0,1,8.82-8.82h39.36a8.82,8.82,0,0,1,8.82,8.82h0V791.7Z" transform="translate(-189.41599 -106.099)" fill="#3f3d56"/><path id="bc696f83-47b6-45c9-967f-bb64f1f3bee5-489" data-name="Path 1496" d="M498.748,791.9v-302a8.82,8.82,0,0,1,8.82-8.82h39.36a8.82,8.82,0,0,1,8.82,8.82h0V791.25Z" transform="translate(-189.41599 -106.099)" fill="#3f3d56"/><path d="M267.747,433.09884a2.9998,2.9998,0,0,1-2.23278-5.00244l131.60547-146.791L526.638,354.03488,656.92679,129.53732,789.65458,238.78244a3.00008,3.00008,0,1,1-3.813,4.63281L658.56937,138.66037,528.85819,362.16281,398.37614,288.8923,269.9816,432.10129A2.99144,2.99144,0,0,1,267.747,433.09884Z" transform="translate(-189.41599 -106.099)" fill="#3f3d56"/><circle id="a1f8771a-4bf9-4603-9747-6ae739e4ad47" data-name="Ellipse 300" cx="77.832" cy="324" r="28" fill="#1c2144"/><circle id="ffdbdf53-78c2-412f-9ede-372406e5d245" data-name="Ellipse 301" cx="207.832" cy="179" r="28" fill="#ccc"/><circle id="b7cff929-f00d-4f86-944c-e500b6ceb6ad" data-name="Ellipse 302" cx="337.832" cy="252" r="28" fill="#e6e6e6"/><circle id="eabc0b76-6faa-4fa0-934c-daff28b491dd" data-name="Ellipse 303" cx="467.832" cy="28" r="28" fill="#1c2144"/><circle id="a7ca0488-8ee6-49e2-b245-2872b84c042e" data-name="Ellipse 304" cx="717.832" cy="236.535" r="28" fill="#1c2144"/><path id="b579ef19-595a-43de-9b6d-0ead8268ca48-490" data-name="Path 1507" d="M897.348,560.755c10.47981,1.26236,37.279-8.29806,38.73146,6.24641,13.7938,40.605,13.38448,196.25632,13.38448,196.25632l-21,1S911.683,640.58334,903.74813,614.12488c-3.98187,32.159-3.28421,155.13285-3.28421,155.13285l-19,1s-17.04317-104.7174-17.14045-135.45308c-2.07126-22.51351,3.00876-55.87593.83463-77.63979a83.21836,83.21836,0,0,0,32.19,3.59Z" transform="translate(-189.41599 -106.099)" fill="#3f3d56"/><path id="b3465432-03e0-48eb-8016-b04aa244e72c-491" data-name="Path 1513" d="M758.748,790.554V352.8c0-5.614,3.949-10.166,8.82-10.166h39.36c4.871,0,8.82,4.551,8.82,10.166V791.7Z" transform="translate(-189.41599 -106.099)" fill="#3f3d56"/><path id="ac7870c5-efcc-4c4b-b17f-07e0bff4d096-492" data-name="Path 1508" d="M861.698,442.955a130.65716,130.65716,0,0,0-15.31-24.17,38.322,38.322,0,0,1-3.4-4.64c-2.15-3.73-2.79-8.11-4.15-12.19-3.8-11.44-13.28-20.63-15.59-32.46-.84-4.3-7.93567,8.19791-6.07,13.53,3.33,9.65,3.76,19.87,8,29.19s9.22,18.26,12.88,27.79c2.08,5.41,3.74,11,6.79,16s7.81,9.19,13.56,9.94a33.44983,33.44983,0,0,1,1.63013-10.68C861.288,451.325,863.508,446.685,861.698,442.955Z" transform="translate(-189.41599 -106.099)" fill="#9e616a"/><path id="be4b35b3-6955-40b7-9549-45fdba6a2930-493" data-name="Path 1509" d="M924.608,449.435a55.25867,55.25867,0,0,1,3.25-20.78c.92-2.55,2-5.14,1.91-7.85-.13-2.52-1.33-4.83-2.42-7.11-3.76-7.85-6.4-16.17-9-24.47l-5-15.65c-1.63018-1.19543,7.89-1.61,9.92,1.2,6.64,9.22,11.67,19.81,16.93005,29.88a50.57714,50.57714,0,0,1,3.42,7.49,41.18565,41.18565,0,0,1,1.8,12.94c0,8.19-1.07995,16.35-2.19995,24.47-.71,5.09-1.64,10.63-5.49,14C933.72793,458.435,929.708,453.435,924.608,449.435Z" transform="translate(-189.41599 -106.099)" fill="#9e616a"/><circle id="a7d383a2-21d6-4551-be8a-8c82a5e576cb" data-name="Ellipse 307" cx="708.75198" cy="314.48401" r="20.75" fill="#9e616a"/><path id="fb091cb1-8ad4-4d57-b74d-c940c723d6bf-494" data-name="Path 1512" d="M881.29986,399.881a3.602,3.602,0,0,1,.75956-3.72335c.51814-.40831,1.20624-.56062,1.7617-.95027a7.602,7.602,0,0,0,1.89952-2.40314,10.31516,10.31516,0,0,1,12.909-3.27672c3.42909,1.79484,5.49957,5.38869,8.54935,7.80841,1.54823,1.25389,3.34408,2.18449,4.90161,3.43838a20.14613,20.14613,0,0,1,6.35451,10.27787,58.31035,58.31035,0,0,1,1.7617,12.12454,10.90476,10.90476,0,0,1-.142,3.68607,10.31659,10.31659,0,0,1-1.39586,2.84979c-3.13478,4.7493-7.26645,9.0623-12.4437,11.5131s-11.47477,2.84979-16.58055.285a2.84975,2.84975,0,0,1-1.27259-1.01658,3.65791,3.65791,0,0,1-.199-2.19382,15.01763,15.01763,0,0,0-1.65284-8.40634c-.95027-1.89951-2.37516-3.53373-3.13479-5.49956a19.15971,19.15971,0,0,1-.89328-6.81979C882.39205,411.59309,882.79831,405.63756,881.29986,399.881Z" transform="translate(-189.41599 -106.099)" fill="#2d293d"/><path id="ef6ae9ea-be37-4bc6-b1be-067860dc7e9d-495" data-name="Path 1514" d="M238.747,791.149V579.808c0-2.71,3.949-4.908,8.82-4.908h39.36c4.871,0,8.82,2.2,8.82,4.908V791.7Z" transform="translate(-189.41599 -106.099)" fill="#3f3d56"/><path id="b4c810f7-8361-4f56-9780-d97c96bbbba4-496" data-name="Path 944" d="M1009.585,793.901H190.416a1,1,0,1,1,0-2h819.168a1,1,0,0,1,0,2Z" transform="translate(-189.41599 -106.099)" fill="#e6e6e6"/><path id="b32730d1-ac43-40b1-a176-73e18bf362e5-497" data-name="Path 1515" d="M628.747,790.405V293.635c0-6.371,3.949-11.536,8.82-11.536h39.36c4.871,0,8.82,5.165,8.82,11.536V791.7Z" transform="translate(-189.41599 -106.099)" fill="#1c2144"/><circle cx="627.18243" cy="265.36557" r="9" fill="#a0616a"/><circle cx="727.18243" cy="261.36557" r="9" fill="#a0616a"/><path d="M938.46807,478.875c.87817-.80359,8.0376-42.67377,7.99585-43.61731-.1106-5.15845-15.85-11.05-19-9-2.97187,1.93408-8.14667,24.12415-11.477,28.16529l-3.523-6.16529h-28l-1.69708,3.15174c-3.674-2.21338-6.97907-4.25409-8.15784-4.92933a5.30006,5.30006,0,0,0-1.311-.64495,20.31093,20.31093,0,0,1-8-3.76c-2.3-1.77-12.97412-20.30744-15.8341-19.81745-3.23.54-14.1247,9.96-14,19,1.37152-.02929,19.21374,35.64765,19.46411,36.97736,1.37,5.62,5.89392,87.57995,7.35394,91.4,6.726-.65,1.416-1.81,7.926,0,7.01,1.95,14.41-.16,21.64-.94a83.11362,83.11362,0,0,1,9.06-.4c11,.05,26.7.66,37.35,3.39.06006-6.98-6.06994-22.08-8.34-28.67a19.24793,19.24793,0,0,1,.03-5.94C930.23809,534.66508,936.09356,481.53978,938.46807,478.875Z" transform="translate(-189.41599 -106.099)" fill="#e6e6e6"/></g></svg></svg>